<svg width="35" height="35" fill="none" xmlns="http://www.w3.org/2000/svg"><path d="M30.429 25.352a15.043 15.043 0 004.57-10.77C34.999 6.406 28.594 0 20.416 0c-4.103 0-8.031 1.674-10.805 4.538-.354-.299-.711-.57-1.073-.761a3.616 3.616 0 00-4.268.641L2.865 5.823C-.153 8.84-.799 12.473.997 16.323c.597 1.28 1.478 2.505 2.617 3.647L14.96 31.355c.93.933 1.91 1.687 2.914 2.24 1.707.938 3.374 1.405 4.97 1.405 2.284 0 4.425-.958 6.332-2.867l1.403-1.403a3.615 3.615 0 00.642-4.268c-.197-.375-.481-.745-.793-1.11zm-11.47-18.06a1.459 1.459 0 012.916 0v5.832h2.916a1.458 1.458 0 110 2.916h-4.375a1.458 1.458 0 01-1.458-1.458v-7.29zm9.56 21.377l-1.403 1.402c-2.323 2.323-4.813 2.63-7.835.967-.762-.418-1.52-1.005-2.255-1.741L5.678 17.91c-.898-.901-1.585-1.85-2.038-2.82-1.283-2.754-.875-5.043 1.287-7.204l1.405-1.404a.715.715 0 01.841-.127c.432.227.935.695 1.436 1.261l.005.005c.078.09.156.183.233.275.08.095.159.187.236.283a16.396 16.396 0 01.422.544c.105.141.208.28.304.416l.015.018a25.593 25.593 0 011.018 1.553c.061.108.093.193.12.267.039.104.064.18.084.181l-.206.143c-1.665 1.388-1.907 1.744-1.999 1.881-1.416 2.091-1.204 4.233.592 6.031l6.354 6.354c1.796 1.796 3.938 2.01 6.03.59.135-.09.49-.332 1.88-1.997v-.052l.065-.118a1.06 1.06 0 01.236.046c.08.023.165.05.275.112.105.061.225.137.34.208a24.23 24.23 0 011.68 1.15l.016.011c.17.128.344.263.516.401l.02.016c.169.137.338.279.501.423l.048.041c.56.5 1.024.999 1.251 1.428a.717.717 0 01-.127.843z" fill="#E7344A"/></svg>