<svg width="18" height="26" fill="none" xmlns="http://www.w3.org/2000/svg"><path fill-rule="evenodd" clip-rule="evenodd" d="M4.964 12.735l10.101 10.1-1.014 1.015L2.934 12.734l1.014-1.014 9.528-9.528 1.015 1.015-9.528 9.527z" fill="#FDCB6A"/><path d="M4.964 12.735L3.949 11.72l-1.014 1.014 1.014 1.015 1.015-1.014zm10.101 10.1l1.015 1.015 1.014-1.014-1.014-1.015-1.015 1.015zm-1.014 1.015l-1.015 1.015 1.014 1.014 1.015-1.014-1.014-1.015zM2.934 12.734L1.92 11.72.906 12.734 1.92 13.75l1.015-1.015zm1.014-1.014l1.014-1.015L3.95 9.69l-1.014 1.014 1.014 1.015zm0 0l-1.013 1.015 1.014 1.013 1.014-1.013-1.015-1.015zm9.528-9.528l1.015-1.014L13.477.163l-1.014 1.015 1.014 1.014zm1.015 1.015l1.014 1.014 1.015-1.014-1.015-1.015-1.014 1.015zM3.949 13.749L14.05 23.85l2.03-2.029L5.979 11.72l-2.03 2.03zm10.101 8.072l-1.014 1.015 2.03 2.029 1.014-1.015-2.03-2.029zm1.015 1.015L3.95 11.72l-2.03 2.029 11.116 11.116 2.03-2.03zM3.95 13.749l1.015-1.015-2.03-2.029L1.92 11.72l2.03 2.029zm-1.014-1.014l2.028-2.03-2.028 2.03zm2.029 0l9.528-9.528-2.03-2.03-9.527 9.528 2.029 2.03zm7.498-9.528l1.015 1.014 2.03-2.029-1.015-1.014-2.03 2.029zm1.015-1.015L3.949 11.72l2.03 2.03 9.527-9.529-2.029-2.029z" fill="#000"/></svg>