<svg width="24" height="24" fill="none" xmlns="http://www.w3.org/2000/svg"><path d="M13.1 20.732A8.802 8.802 0 0012 3.2a8.8 8.8 0 00-1.1 17.532V14.2H8.7V12h2.2v-1.82c0-1.47.154-2.004.44-2.542a2.999 2.999 0 011.25-1.248c.42-.225.942-.36 1.855-.42.362-.022.83.006 1.406.089v2.09H15.3c-1.009 0-1.426.047-1.674.18a.8.8 0 00-.346.346c-.132.248-.18.495-.18 1.505V12h2.75l-.55 2.2h-2.2v6.532zM12 23C5.925 23 1 18.075 1 12S5.925 1 12 1s11 4.925 11 11-4.925 11-11 11z" fill="#000" stroke="#fff" stroke-width=".5"/></svg>