<svg width="42" height="28" fill="none" xmlns="http://www.w3.org/2000/svg"><path d="M10.797 14.36H1.578v2.04h8.627a14.499 14.499 0 00-.288 2.152h29.245c-.206-3.557-1.702-6.873-4.265-9.414-2-1.982-4.478-3.32-7.176-3.91l1.204-1.757L26.768.5h-4.663l-2.158 2.972L21.18 5.27a14.55 14.55 0 00-3.2 1.146H4.34v2.04h10.58a14.868 14.868 0 00-1.863 1.932H0v2.04h11.687a14.254 14.254 0 00-.89 1.933z" fill="#E7344A"/><path d="M40.765 17.827H8.107a3.348 3.348 0 00-1.234 2.594v2.924h2.162a3.508 3.508 0 00-.004.176c0 1.922 1.577 3.485 3.516 3.485s3.516-1.563 3.516-3.485c0-.059-.002-.118-.005-.176h16.756a3.568 3.568 0 00-.005.176c0 1.922 1.578 3.485 3.517 3.485 1.938 0 3.516-1.563 3.516-3.485 0-.059-.002-.118-.005-.176H42V20.42a3.348 3.348 0 00-1.235-2.594z" fill="#E7344A"/></svg>