<svg width="38" height="38" fill="none" xmlns="http://www.w3.org/2000/svg"><g clip-path="url(#clip0)" fill="#FDCB6A"><path d="M11.536 15.393h9.575c2.32-1.67 3.645-4.182 3.645-6.948a8.439 8.439 0 10-13.22 6.948zm4.75-6.605a2.832 2.832 0 01-.927-5.507v-.694a.742.742 0 111.484 0v.593a2.837 2.837 0 012.276 2.776.742.742 0 01-1.485 0 1.348 1.348 0 10-1.347 1.348 2.832 2.832 0 01.556 5.609v.716a.742.742 0 11-1.484 0v-.818a2.836 2.836 0 01-1.904-2.675.742.742 0 011.485 0 1.347 1.347 0 101.347-1.348z"/><path d="M34.53 17.85l-1.364-.143a.94.94 0 01-.609-.31l-.085-.085-.054-.108c-.937-1.874-2.324-3.53-4.123-4.925l-.038-.028-.033-.033a.903.903 0 01-.264-.667l.004-.08.236-2.166c.114-1.032.233-2.152.194-2.389l-.006-.04a.09.09 0 00-.005-.024.408.408 0 00-.152-.023l-.025-.003c-.33-.012-.944.047-2.045.375a9.854 9.854 0 01-2.78 8.192h.337a.742.742 0 010 1.484H8.917a.742.742 0 110-1.484h.314a9.7 9.7 0 01-2.129-3.233 14.776 14.776 0 00-3.849 4.181l-.651 1.24c-.667 1.383-1.07 2.79-1.162 4.071v.636c0 2.607.903 5.132 2.581 7.3a.86.86 0 01.104.988l-.032.061-.043.052c-1.36 1.77-1.282 4.168.185 5.714a4.871 4.871 0 003.522 1.538h.178c1.309 0 2.532-.459 3.443-1.328l1.172-1.106a.901.901 0 01.659-.257h.086l.084.03a18.04 18.04 0 007.144.238l.063.01h.063a.857.857 0 01.658.234l.89.821a5.301 5.301 0 003.397 1.41 5.111 5.111 0 003.449-1.117 4.34 4.34 0 001.155-5.26.674.674 0 01-.085-.61v-.198l.176-.212a13.144 13.144 0 002.125-3.166l.055-.115.092-.09a.953.953 0 01.612-.309l1.358-.143a2.21 2.21 0 001.984-2.188v-4.547a2.21 2.21 0 00-1.984-2.188z"/></g><defs><clipPath id="clip0"><path fill="#fff" d="M0 0h38v38H0z"/></clipPath></defs></svg>