<svg width="19" height="24" fill="none" xmlns="http://www.w3.org/2000/svg"><g clip-path="url(#clip0)" stroke="#000"><path d="M3.208 7.5h-.254l-.15.205-2.13 2.916-.58.795h18.912l-.607-.802-2.209-2.916-.15-.198H3.208zm14.789 8h.499V15l.004-3v-.5h-5.367l-.11.35-.54 1.722h-5.95l-.557-1.726-.112-.346H.5v4h17.497zm0 8h.499V23l.004-3v-.5h-5.62l-.086.393-.331 1.512H6.556l-.331-1.512-.086-.393H.5v4h17.497zm0-4h.499V19l.004-3v-.5h-5.62l-.086.393-.331 1.512H6.556l-.331-1.512-.086-.393H.5v4h17.497z"/></g><path fill-rule="evenodd" clip-rule="evenodd" d="M9.82.137a.434.434 0 10-.59.634c.598.56.433.842.043 1.406s-.83 1.268-.074 2.144a.434.434 0 10.655-.568c-.312-.36-.204-.564.143-1.098l.004-.006c.348-.535.947-1.456-.182-2.512zM7.057 3.753c-.312-.36-.204-.564.144-1.098l.003-.006c.348-.534.948-1.456-.181-2.511a.434.434 0 10-.595.633c.6.56.434.842.044 1.407-.391.564-.808 1.267-.053 2.144a.434.434 0 10.638-.569zM11.982.157a.434.434 0 01.614-.02c1.129 1.056.53 1.978.181 2.512l-.003.006c-.347.534-.456.738-.143 1.098a.433.433 0 01-.045.63.434.434 0 01-.61-.061c-.756-.877-.322-1.58.069-2.144.39-.565.555-.847-.044-1.407a.434.434 0 01-.02-.614z" fill="#000"/><defs><clipPath id="clip0"><path fill="#fff" transform="translate(0 6)" d="M0 0h19v18H0z"/></clipPath></defs></svg>