<svg width="25" height="25" fill="none" xmlns="http://www.w3.org/2000/svg"><g clip-path="url(#clip0)" fill="#FDCB6A"><path d="M23.102 3.706h-6.097v-.87A2.613 2.613 0 0014.392.222H10.91a2.613 2.613 0 00-2.613 2.612v.871H2.199a.87.87 0 100 1.742h.947l1.666 18.37a.87.87 0 00.87.79h13.936a.871.871 0 00.87-.79l1.667-18.37h.947a.87.87 0 100-1.742zm-13.065-.87a.87.87 0 01.871-.871h3.484a.87.87 0 01.871.87v.871h-5.225v-.87zm8.786 20.031H6.478L4.899 5.448h15.507l-1.583 17.419z"/><path d="M10.037 20.195v-.003L9.166 7.999a.873.873 0 00-1.742.123l.871 12.194c.033.456.413.81.871.809h.063a.871.871 0 00.808-.93zM12.65 7.19a.87.87 0 00-.87.871v12.194a.87.87 0 001.741 0V8.06a.87.87 0 00-.87-.87zm4.416 0a.873.873 0 00-.933.809l-.87 12.193a.871.871 0 00.804.932h.066a.871.871 0 00.871-.808l.871-12.194a.873.873 0 00-.81-.932z"/></g><defs><clipPath id="clip0"><path fill="#fff" transform="translate(.457 .223)" d="M0 0h24.386v24.386H0z"/></clipPath></defs></svg>