<svg width="20" height="19" fill="none" xmlns="http://www.w3.org/2000/svg"><path d="M17.24 14.644c-.851.754-2.086 1.294-3.703 1.622a17.943 17.943 0 01-5 .287L5.277 19v-3.059c-1.073-.333-1.913-.766-2.518-1.297-.716-.63-1.271-1.536-1.666-2.716a11.316 11.316 0 010-7.229c.395-1.18.953-2.088 1.676-2.725C3.49 1.338 4.525.85 5.87.51A16.8 16.8 0 0110 0a16.8 16.8 0 014.13.51c1.345.34 2.38.828 3.101 1.464.723.637 1.281 1.545 1.676 2.725a11.314 11.314 0 010 7.23c-.395 1.18-.95 2.085-1.666 2.715zm-4.907-4.542l1.204.204c-.099-1.483-.67-2.75-1.713-3.8-1.043-1.05-2.305-1.625-3.787-1.724l.204 1.205a4.603 4.603 0 012.74 1.353 4.626 4.626 0 011.352 2.762zM8.444 7.23l.223 1.335c.493.247.858.612 1.092 1.094l1.334.222a3.391 3.391 0 00-.945-1.696 3.604 3.604 0 00-1.704-.955zM6.463 8.323V7.137c0-.21-.077-.42-.232-.63a1.52 1.52 0 00-.49-.455c-.173-.092-.303-.102-.39-.028l-.851.872c-.481.482-.552 1.232-.213 2.252.34 1.02.988 2.008 1.944 2.966.957.957 1.945 1.606 2.963 1.946 1.019.34 1.763.269 2.232-.213l.87-.871c.087-.075.084-.201-.009-.38a1.406 1.406 0 00-.454-.492 1.086 1.086 0 00-.63-.222H10.02l-.686.593c-.543-.148-1.219-.627-2.027-1.436-.81-.81-1.287-1.493-1.436-2.049l.593-.667zM7.648 2.39l.185 1.205a6.86 6.86 0 013.426.973 7.034 7.034 0 012.5 2.503 7.026 7.026 0 01.982 3.42l1.203.204c0-1.125-.219-2.2-.657-3.226a8.34 8.34 0 00-1.769-2.65 8.333 8.333 0 00-2.648-1.77 8.103 8.103 0 00-3.222-.659z" fill="#8B66A9"/></svg>