<svg width="306" height="164" fill="none" xmlns="http://www.w3.org/2000/svg"><circle cx="158.172" cy="80.978" r="53.172" fill="#E7344A"/><path d="M305.895 85.898A114.199 114.199 0 00206.997 28.8v114.198l98.898-57.099zM.6 77.384a114.195 114.195 0 0098.608 57.597l.576-114.197L.6 77.384z" fill="#FDCB6A"/><path d="M245.288 97c-.347 0-.659-.121-.936-.364a1.383 1.383 0 01-.364-.936v-5.72h-16.12c-.347 0-.659-.121-.936-.364a1.383 1.383 0 01-.364-.936v-5.252c0-.52.19-1.04.572-1.56l15.08-20.384c.485-.59 1.126-.884 1.924-.884h7.904c.381 0 .693.121.936.364.277.243.416.555.416.936v20.02h4.576c.416 0 .745.139.988.416.242.243.364.537.364.884v5.46c0 .347-.122.659-.364.936-.243.243-.555.364-.936.364H253.4v5.72c0 .381-.139.693-.416.936-.243.243-.555.364-.936.364h-6.76zm-9.464-14.716h8.372v-11.7l-8.372 11.7zM62.724 97c-.347 0-.659-.121-.936-.364a1.384 1.384 0 01-.364-.936v-5.72h-16.12c-.347 0-.659-.121-.936-.364a1.384 1.384 0 01-.364-.936v-5.252c0-.52.19-1.04.572-1.56l15.08-20.384c.485-.59 1.126-.884 1.924-.884h7.904c.381 0 .693.121.936.364.277.243.416.555.416.936v20.02h4.576c.416 0 .745.139.988.416.242.243.364.537.364.884v5.46c0 .347-.122.659-.364.936-.243.243-.555.364-.936.364h-4.628v5.72c0 .381-.139.693-.416.936-.243.243-.555.364-.936.364h-6.76zM53.26 82.284h8.372v-11.7l-8.372 11.7zM158.418 97.52c-4.784-.035-8.424-1.3-10.92-3.796-2.496-2.496-3.865-5.79-4.108-9.88a138.364 138.364 0 01-.104-5.044c0-1.525.035-3.259.104-5.2.139-2.6.78-4.905 1.924-6.916 1.179-2.045 2.86-3.657 5.044-4.836 2.219-1.179 4.905-1.768 8.06-1.768 3.155 0 5.841.59 8.06 1.768 2.219 1.179 3.9 2.79 5.044 4.836 1.179 2.01 1.837 4.316 1.976 6.916.069.97.104 2.704.104 5.2 0 2.427-.035 4.108-.104 5.044-.243 4.09-1.612 7.384-4.108 9.88-2.496 2.496-6.153 3.761-10.972 3.796zm0-7.852c1.629 0 2.843-.52 3.64-1.56.797-1.075 1.231-2.583 1.3-4.524.069-1.005.104-2.635.104-4.888s-.035-3.848-.104-4.784c-.069-1.872-.503-3.345-1.3-4.42-.797-1.11-2.011-1.664-3.64-1.664-3.12 0-4.767 2.028-4.94 6.084-.035.936-.052 2.53-.052 4.784 0 2.253.017 3.883.052 4.888.173 4.056 1.82 6.084 4.94 6.084z" fill="#fff"/></svg>