<svg width="190" height="59" fill="none" xmlns="http://www.w3.org/2000/svg"><path d="M88.445 48.138a42.757 42.757 0 0017.226 3.626 42.754 42.754 0 0017.225-3.626l-17.223-34.473-17.228 34.473z" fill="#FCCB6B"/><path d="M101.301 51.548a35.27 35.27 0 01-16.55-4.133l-2.009-1.076 18.559-37.125 18.554 37.125-2.009 1.076a35.253 35.253 0 01-16.545 4.133zM88.968 44.27a30.604 30.604 0 0012.331 2.596c4.243 0 8.441-.883 12.331-2.596l-12.329-24.684L88.968 44.27zM17.859 15.82c1.6 1.81 2.4 4.162 2.4 7.056v13.79c0 2.978-.8 5.35-2.4 7.115-1.6 1.765-3.728 2.649-6.381 2.651a8.481 8.481 0 01-3.37-.672 7.474 7.474 0 01-2.78-2.072c-.084-.086-.156-.107-.22-.064a.216.216 0 00-.096.191v13.853a.572.572 0 01-.377.615.555.555 0 01-.255.024h-3.2a.555.555 0 01-.608-.38.572.572 0 01-.024-.259v-43.41a.572.572 0 01.377-.615.555.555 0 01.255-.024h3.222a.555.555 0 01.608.38.572.572 0 01.024.258v1.469a.15.15 0 00.126.157.26.26 0 00.253-.093 7.164 7.164 0 012.75-2.013 8.543 8.543 0 013.316-.669c2.653 0 4.78.904 6.381 2.711zm-3.568 2.936A5.154 5.154 0 0012.5 17.47a5.105 5.105 0 00-2.16-.415 4.82 4.82 0 00-2.1.416 4.868 4.868 0 00-1.72 1.286c-.988 1.135-1.484 2.615-1.487 4.439v13.15c0 1.831.496 3.31 1.487 4.436a4.87 4.87 0 001.72 1.286 4.82 4.82 0 002.1.416 5.105 5.105 0 002.16-.415 5.152 5.152 0 001.791-1.287c1.03-1.135 1.546-2.614 1.546-4.435V23.195c0-1.83-.515-3.31-1.546-4.439zM27.446 6.724a3.568 3.568 0 01-1.016-1.85 3.593 3.593 0 01.203-2.105 3.549 3.549 0 011.35-1.617 3.494 3.494 0 012.02-.557 3.338 3.338 0 012.498.987 3.858 3.858 0 010 5.141 3.306 3.306 0 01-2.498 1.021 3.36 3.36 0 01-2.557-1.02zm.345 38.559V14.257a.571.571 0 01.377-.615.554.554 0 01.255-.024h3.223a.554.554 0 01.472.16.568.568 0 01.16.479v31.026a.572.572 0 01-.16.477.558.558 0 01-.473.161h-3.222a.555.555 0 01-.608-.38.57.57 0 01-.024-.258zm10.855 0v-3.064a1.845 1.845 0 01.19-.83l12.952-23.302a.294.294 0 00.029-.225c-.021-.064-.072-.094-.156-.094h-12.13a.554.554 0 01-.474-.16.568.568 0 01-.159-.478v-2.873a.572.572 0 01.16-.478.558.558 0 01.472-.16h17.06a.555.555 0 01.607.38.57.57 0 01.024.258v3.064a1.85 1.85 0 01-.19.83L43.954 41.453a.21.21 0 000 .22.215.215 0 00.19.099h12.573a.554.554 0 01.473.16.568.568 0 01.158.478v2.873a.572.572 0 01-.158.478.558.558 0 01-.473.16H39.278a.555.555 0 01-.608-.38.572.572 0 01-.024-.258zm22.809 0v-3.064a1.845 1.845 0 01.19-.83l12.951-23.302a.295.295 0 00.03-.225c0-.064-.072-.094-.156-.094H62.34a.554.554 0 01-.474-.16.567.567 0 01-.159-.478v-2.873a.572.572 0 01.159-.478.558.558 0 01.473-.16H79.4a.555.555 0 01.607.38.572.572 0 01.024.258v3.064a1.85 1.85 0 01-.19.83L66.783 41.453a.21.21 0 000 .22.215.215 0 00.19.099h12.573a.554.554 0 01.473.16.568.568 0 01.158.478v2.873a.572.572 0 01-.158.478.558.558 0 01-.473.16H62.107a.555.555 0 01-.608-.38.572.572 0 01-.023-.258m61.703 0v-3.064a1.834 1.834 0 01.189-.83l12.952-23.302a.303.303 0 00.034-.226c-.021-.063-.076-.093-.16-.093h-12.131a.553.553 0 01-.473-.16.575.575 0 01-.159-.478v-2.873a.578.578 0 01.159-.478.558.558 0 01.473-.16h17.059a.554.554 0 01.473.16.564.564 0 01.159.478v3.064a1.86 1.86 0 01-.189.83l-13.079 23.302a.207.207 0 00.082.295.21.21 0 00.107.024h12.574a.554.554 0 01.473.16.575.575 0 01.158.478v2.873a.577.577 0 01-.158.478.565.565 0 01-.473.16H123.81a.555.555 0 01-.608-.38.577.577 0 01-.023-.258zm22.808 0v-3.064a1.849 1.849 0 01.19-.83l12.952-23.302a.301.301 0 00.03-.226c-.021-.063-.072-.093-.156-.093h-12.131a.553.553 0 01-.473-.16.563.563 0 01-.159-.478v-2.873a.564.564 0 01.632-.638h17.046a.554.554 0 01.473.16.564.564 0 01.159.478v3.064a1.86 1.86 0 01-.189.83l-13.079 23.302a.207.207 0 00.082.295.21.21 0 00.107.024h12.574a.554.554 0 01.473.16.575.575 0 01.158.478v2.873a.577.577 0 01-.158.478.565.565 0 01-.473.16h-17.439a.555.555 0 01-.608-.38.577.577 0 01-.023-.258m41.017-29.273c1.769 1.935 2.654 4.52 2.654 7.758v21.514a.564.564 0 01-.632.639h-3.222a.554.554 0 01-.473-.161.563.563 0 01-.159-.478v-1.915a.152.152 0 00-.097-.162c-.063 0-.135 0-.219.098-1.558 2.086-3.896 3.128-7.013 3.128a9.483 9.483 0 01-6.036-2.013c-1.705-1.34-2.557-3.711-2.557-7.116 0-3.617 1.032-6.267 3.096-7.95 2.064-1.683 4.781-2.522 8.151-2.52h4.422a.223.223 0 00.253-.255V24.07c0-2.128-.484-3.83-1.453-5.107a4.698 4.698 0 00-1.725-1.445 4.637 4.637 0 00-2.192-.47 4.606 4.606 0 00-3.256 1.277 5.222 5.222 0 00-1.609 3.256.575.575 0 01-.377.614.555.555 0 01-.255.024l-3.538-.064a.579.579 0 01-.476-.191.477.477 0 01-.093-.426 8.698 8.698 0 01.894-3.365 8.617 8.617 0 012.139-2.734 9.925 9.925 0 016.697-2.328c2.948 0 5.307.968 7.076 2.903v-.004zm-3.727 24.773c1.263-1.134 1.895-2.695 1.895-4.681V30.74a.227.227 0 00-.15-.247.223.223 0 00-.103-.009h-4.486c-2.021 0-3.622.542-4.801 1.626-1.18 1.084-1.77 2.691-1.77 4.822 0 1.872.453 3.266 1.357 4.18a4.792 4.792 0 003.572 1.375 6.518 6.518 0 004.486-1.704z" fill="#E6334A"/></svg>