<svg width="103" height="47" fill="none" xmlns="http://www.w3.org/2000/svg"><path d="M47.877 25.955a23.244 23.244 0 009.383 1.98c3.228 0 6.422-.675 9.382-1.98l-9.381-18.82-9.384 18.82z" fill="#FCCB6B"/><path d="M54.88 27.816a19.18 19.18 0 01-9.015-2.256l-1.094-.588L54.879 4.705l10.107 20.267-1.095.588a19.167 19.167 0 01-9.011 2.256zm-6.718-3.973a16.638 16.638 0 0013.433 0L54.88 10.367l-6.718 13.476zM9.43 8.31c.871.989 1.307 2.273 1.307 3.853v7.528c0 1.626-.436 2.921-1.307 3.885-.872.963-2.03 1.445-3.476 1.447a4.611 4.611 0 01-1.836-.367 4.07 4.07 0 01-1.514-1.132c-.046-.046-.085-.058-.12-.034a.118.118 0 00-.052.104v7.563a.312.312 0 01-.205.335.302.302 0 01-.14.013H.345a.302.302 0 01-.331-.207.312.312 0 01-.013-.141V7.458a.313.313 0 01.086-.26.305.305 0 01.258-.088H2.1a.302.302 0 01.258.087.31.31 0 01.086.261v.802c-.001.02.005.04.018.056a.08.08 0 00.051.03.14.14 0 00.138-.051c.405-.483.919-.86 1.498-1.1a4.645 4.645 0 011.806-.364c1.445 0 2.604.493 3.476 1.48zM7.486 9.915a2.807 2.807 0 00-.976-.703 2.775 2.775 0 00-1.176-.226 2.621 2.621 0 00-1.144.227c-.36.16-.68.4-.937.702-.538.62-.808 1.427-.81 2.423v7.18c0 .999.27 1.806.81 2.42a2.622 2.622 0 002.08.93 2.78 2.78 0 002.153-.93c.562-.619.842-1.426.842-2.42v-7.18c0-.999-.28-1.807-.842-2.423zm7.165-6.569a1.965 1.965 0 01-.443-2.159c.152-.363.408-.671.736-.883a1.9 1.9 0 011.1-.304 1.815 1.815 0 011.36.539 2.106 2.106 0 010 2.807 1.816 1.816 0 01-1.36.557 1.826 1.826 0 01-1.393-.557zm.188 21.05V7.458a.312.312 0 01.206-.335.301.301 0 01.139-.013h1.755a.301.301 0 01.257.087.309.309 0 01.087.261v16.938a.312.312 0 01-.205.335.304.304 0 01-.14.013h-1.754a.304.304 0 01-.332-.208.312.312 0 01-.013-.14zm5.913 0v-1.673a1.01 1.01 0 01.103-.453L27.91 9.55a.163.163 0 00.016-.124c-.011-.035-.039-.051-.085-.051h-6.607a.302.302 0 01-.258-.088.31.31 0 01-.086-.26v-1.57a.314.314 0 01.086-.26.305.305 0 01.258-.088h9.292a.302.302 0 01.257.087.31.31 0 01.087.261V9.13c.001.157-.034.312-.104.453l-7.123 12.72a.115.115 0 000 .121.116.116 0 00.103.054h6.848a.3.3 0 01.258.088.31.31 0 01.087.26v1.569a.314.314 0 01-.087.26.305.305 0 01-.258.088h-9.498a.3.3 0 01-.258-.087.308.308 0 01-.086-.261zm12.423 0v-1.673a1.01 1.01 0 01.104-.453l7.055-12.72a.163.163 0 00.016-.124c0-.035-.04-.051-.085-.051h-6.608a.302.302 0 01-.257-.088.31.31 0 01-.087-.26v-1.57a.314.314 0 01.087-.26.305.305 0 01.257-.088h9.292a.302.302 0 01.331.207c.015.046.02.094.013.141V9.13c.002.157-.034.312-.103.453l-7.112 12.72a.115.115 0 000 .121.116.116 0 00.103.054h6.849a.3.3 0 01.257.088.309.309 0 01.087.26v1.569a.312.312 0 01-.206.335.3.3 0 01-.139.013h-9.498a.3.3 0 01-.258-.087.31.31 0 01-.086-.261m33.609.001v-1.673a1.01 1.01 0 01.103-.453l7.055-12.72a.163.163 0 00.019-.124c-.012-.035-.042-.051-.088-.051h-6.607a.301.301 0 01-.258-.088.309.309 0 01-.086-.26v-1.57a.312.312 0 01.205-.335.301.301 0 01.139-.013h9.292a.302.302 0 01.257.087.31.31 0 01.087.261V9.13a1.01 1.01 0 01-.103.453l-7.124 12.72a.116.116 0 000 .121.117.117 0 00.103.054h6.848a.3.3 0 01.258.088.309.309 0 01.087.26v1.569a.312.312 0 01-.206.335.3.3 0 01-.139.013H67.14a.3.3 0 01-.258-.087.31.31 0 01-.086-.261zm12.424 0v-1.673a1.01 1.01 0 01.103-.453l7.055-12.72a.16.16 0 00.016-.124c-.012-.035-.04-.051-.085-.051h-6.608a.301.301 0 01-.257-.088.309.309 0 01-.087-.26v-1.57a.312.312 0 01.206-.335.301.301 0 01.138-.013h9.285a.302.302 0 01.258.087.309.309 0 01.087.261V9.13a1.01 1.01 0 01-.104.453l-7.123 12.72a.115.115 0 000 .121.116.116 0 00.103.054h6.848a.3.3 0 01.258.088.309.309 0 01.086.26v1.569a.31.31 0 01-.205.335.3.3 0 01-.139.013h-9.498a.3.3 0 01-.258-.087.31.31 0 01-.086-.261m22.342-15.98c.963 1.057 1.445 2.469 1.445 4.236v11.745a.32.32 0 01-.086.26.308.308 0 01-.258.088h-1.755a.301.301 0 01-.258-.087.313.313 0 01-.086-.261V23.35a.083.083 0 00-.012-.053.08.08 0 00-.041-.035c-.035 0-.074 0-.119.053-.85 1.139-2.123 1.708-3.82 1.708a5.158 5.158 0 01-3.288-1.099c-.929-.731-1.393-2.026-1.393-3.885 0-1.975.562-3.421 1.686-4.34 1.125-.918 2.605-1.377 4.44-1.375h2.409a.12.12 0 00.133-.083.134.134 0 00.005-.057v-1.368c0-1.162-.264-2.091-.792-2.788a2.557 2.557 0 00-.94-.79 2.522 2.522 0 00-1.194-.256 2.506 2.506 0 00-1.773.697 2.855 2.855 0 00-.877 1.778.314.314 0 01-.086.26.304.304 0 01-.258.088l-1.927-.035a.316.316 0 01-.26-.104.261.261 0 01-.05-.232c.038-.64.203-1.265.487-1.838.285-.572.68-1.08 1.165-1.492a5.4 5.4 0 013.648-1.27c1.606 0 2.891.527 3.855 1.584v-.003zm-2.03 13.525c.687-.62 1.032-1.472 1.032-2.556v-2.927a.135.135 0 00-.005-.057.119.119 0 00-.03-.048.12.12 0 00-.103-.035h-2.444c-1.1 0-1.973.296-2.615.888-.642.592-.964 1.469-.964 2.632 0 1.023.247 1.783.74 2.282a2.625 2.625 0 001.945.75 3.544 3.544 0 002.443-.93z" fill="#E6334A"/><path d="M10.94 45.248a.297.297 0 01-.23-.088.327.327 0 01-.083-.232v-9.073a.346.346 0 01.083-.233.303.303 0 01.23-.09h6.763a.304.304 0 01.311.2.316.316 0 01.02.132v9.075a.313.313 0 01-.09.233.322.322 0 01-.23.088h-.7a.298.298 0 01-.298-.195.315.315 0 01-.02-.126v-8.167h-4.729v8.158a.323.323 0 01-.087.232.322.322 0 01-.23.089l-.71-.003zm9.174-8.573a.302.302 0 01-.293-.195.313.313 0 01-.021-.123v-.75a.314.314 0 01.194-.304.292.292 0 01.125-.02h.865a.3.3 0 01.227.09.309.309 0 01.09.23v.751a.306.306 0 01-.32.323l-.867-.002zm.11 8.573a.295.295 0 01-.295-.194.305.305 0 01-.02-.124v-6.587a.309.309 0 01.193-.3.301.301 0 01.122-.02h.659a.282.282 0 01.23.09.328.328 0 01.082.232v6.587a.328.328 0 01-.083.233.283.283 0 01-.23.088l-.658-.005zM29.092 47a.283.283 0 01-.302-.192.294.294 0 01-.015-.129v-1.43h-5.447a.298.298 0 01-.227-.09.307.307 0 01-.09-.23v-6.586a.311.311 0 01.194-.3.303.303 0 01.123-.02h.659a.282.282 0 01.23.09.338.338 0 01.08.232v5.795h3.528v-5.797a.328.328 0 01.08-.232.285.285 0 01.23-.09h.658a.303.303 0 01.296.195c.016.04.023.082.021.125l-.014 5.794h.659a.307.307 0 01.319.323v2.221a.32.32 0 01-.09.233.323.323 0 01-.23.083l-.662.005zm4.345-1.612a2.793 2.793 0 01-1.248-.277 2.439 2.439 0 01-.906-.75 1.774 1.774 0 01-.345-1.071c-.007-.3.06-.596.194-.863s.332-.496.575-.666a4.41 4.41 0 012.003-.75l2.049-.291v-.404a1.41 1.41 0 00-.379-1.041c-.252-.251-.661-.377-1.227-.377a1.777 1.777 0 00-.996.251 1.346 1.346 0 00-.528.64.297.297 0 01-.289.208h-.62a.27.27 0 01-.229-.09.325.325 0 01-.075-.216 1.17 1.17 0 01.158-.514c.123-.229.288-.431.486-.597a2.8 2.8 0 01.845-.495 3.49 3.49 0 011.255-.2c.467-.01.933.062 1.376.214.337.12.64.317.886.579.209.236.365.515.459.818.095.3.144.613.144.929v4.503a.31.31 0 01-.193.298.299.299 0 01-.123.02h-.631a.297.297 0 01-.23-.088.338.338 0 01-.08-.233v-.597c-.138.185-.3.35-.482.493a2.454 2.454 0 01-.755.402c-.358.115-.734.17-1.11.16l.016.005zm.27-1.046a2.19 2.19 0 001.03-.232 1.71 1.71 0 00.735-.758 2.77 2.77 0 00.268-1.291v-.39l-1.592.232a3.67 3.67 0 00-1.468.464.958.958 0 00-.493.827.937.937 0 00.23.646c.156.175.354.307.575.384.231.083.475.125.72.125m11.155 1.039a4.009 4.009 0 01-1.365-.203 2.518 2.518 0 01-.892-.513 2.024 2.024 0 01-.49-.653 1.818 1.818 0 01-.162-.632.265.265 0 01.083-.202.27.27 0 01.19-.077h.64a.332.332 0 01.207.063.389.389 0 01.123.216 1.141 1.141 0 00.632.737c.363.15.754.22 1.147.209a2.66 2.66 0 00.807-.119c.229-.066.432-.2.585-.383.144-.186.219-.417.211-.653a1.118 1.118 0 00-.32-.862 1.462 1.462 0 00-.997-.29h-.754a.294.294 0 01-.23-.084.312.312 0 01-.08-.233v-.373a.319.319 0 01.08-.217.284.284 0 01.23-.09h.672c.305.017.608-.065.865-.233a.812.812 0 00.303-.708 1.19 1.19 0 00-.138-.556 1.078 1.078 0 00-.459-.436c-.276-.13-.58-.19-.883-.174-.532 0-.904.09-1.12.271-.233.21-.394.49-.459.8a.43.43 0 01-.13.206.354.354 0 01-.214.056h-.617a.31.31 0 01-.206-.07.232.232 0 01-.08-.192 1.98 1.98 0 01.706-1.474c.257-.218.555-.381.876-.48.404-.122.823-.18 1.244-.172a3.45 3.45 0 011.624.318 2 2 0 01.851.785c.163.283.25.603.255.93.01.31-.049.617-.172.901-.149.274-.383.49-.665.613.363.117.667.37.85.71.162.341.246.716.246 1.096.027.431-.108.858-.376 1.194-.284.332-.652.58-1.065.716a4.518 4.518 0 01-1.548.243m10.078-.125a.303.303 0 01-.318-.32v-5.793h-2.384a.303.303 0 01-.296-.197.321.321 0 01-.02-.126v-.464a.321.321 0 01.087-.233.308.308 0 01.229-.09h6.038a.298.298 0 01.23.09.312.312 0 01.09.233v.464a.315.315 0 01-.195.303.3.3 0 01-.125.02h-2.388v5.795a.327.327 0 01-.083.232.298.298 0 01-.229.089l-.635-.003zm7.595.14a3.47 3.47 0 01-1.744-.402 2.704 2.704 0 01-1.07-1.12 3.868 3.868 0 01-.41-1.627 9.052 9.052 0 01-.014-.606c0-.246 0-.441.014-.59a3.783 3.783 0 01.418-1.638c.246-.468.62-.854 1.076-1.113a3.928 3.928 0 013.46 0c.456.26.83.645 1.076 1.113.261.506.405 1.067.42 1.638 0 .149.011.346.011.59s0 .448-.011.606a3.867 3.867 0 01-.413 1.627c-.241.47-.613.86-1.07 1.12a3.47 3.47 0 01-1.743.402zm0-1.07a1.75 1.75 0 001.358-.55c.34-.365.52-.899.548-1.603.01-.14.014-.316.014-.53 0-.211 0-.388-.014-.527-.027-.697-.208-1.238-.548-1.605a1.773 1.773 0 00-1.358-.549 1.777 1.777 0 00-1.365.548c-.344.368-.523.902-.542 1.606 0 .14-.014.316-.014.527 0 .212 0 .39.014.53.019.697.198 1.238.542 1.603a1.788 1.788 0 001.365.55zm7.825 1.07a3.477 3.477 0 01-1.761-.41 2.643 2.643 0 01-1.072-1.161 4.313 4.313 0 01-.39-1.757c0-.278-.014-.555-.014-.834 0-.279 0-.555.014-.834a8.904 8.904 0 01.207-2.09c.108-.497.32-.964.624-1.37.289-.366.65-.666 1.062-.882a8.086 8.086 0 011.523-.604 62.045 62.045 0 012.003-.549.32.32 0 01.241.042.243.243 0 01.13.193l.111.572a.283.283 0 01-.115.302.284.284 0 01-.105.044c-.687.176-1.286.331-1.797.465a6.612 6.612 0 00-1.291.453 2.36 2.36 0 00-.835.66 2.36 2.36 0 00-.434 1.068 8.311 8.311 0 00-.076 1.71l-.3-.125c.049-.347.2-.67.43-.93.255-.295.568-.532.919-.697a2.677 2.677 0 011.165-.262c.562-.02 1.118.12 1.606.402.43.264.777.644 1.003 1.099a3.93 3.93 0 01.39 1.598c.018.273.018.546 0 .818a3.776 3.776 0 01-.41 1.605 2.683 2.683 0 01-1.072 1.1 3.514 3.514 0 01-1.744.394l-.011-.02zm.012-1.006a1.784 1.784 0 001.377-.544c.336-.36.514-.887.534-1.582.01-.093.014-.2.014-.321 0-.12-.005-.246-.014-.376-.018-.697-.195-1.236-.528-1.597a1.648 1.648 0 00-1.257-.543 1.965 1.965 0 00-1.427.543c-.374.36-.576.895-.603 1.597-.01.13-.014.255-.014.376 0 .12.005.228.014.32.027.696.21 1.223.548 1.583a1.78 1.78 0 001.358.544m7.75 1.006a3.456 3.456 0 01-1.74-.402 2.708 2.708 0 01-1.072-1.12 3.903 3.903 0 01-.411-1.627 9.91 9.91 0 01-.014-.606c0-.244 0-.441.014-.59a3.815 3.815 0 01.418-1.638 2.772 2.772 0 011.078-1.113 3.923 3.923 0 013.457 0c.457.259.83.645 1.076 1.113a3.78 3.78 0 01.42 1.638c0 .149.014.346.014.59s0 .448-.014.606a3.867 3.867 0 01-.413 1.627c-.24.471-.612.86-1.069 1.12a3.466 3.466 0 01-1.744.402zm0-1.07a1.754 1.754 0 001.361-.55c.338-.365.52-.9.548-1.603.01-.14.014-.316.014-.53 0-.211 0-.388-.014-.527-.027-.703-.21-1.238-.548-1.606a1.78 1.78 0 00-1.36-.548 1.781 1.781 0 00-1.366.548c-.342.367-.523.903-.541 1.606 0 .14-.014.316-.014.527 0 .212 0 .39.014.53.018.705.199 1.24.541 1.603a1.792 1.792 0 001.365.55zm8.031-2.195h-1.997v2.807a.337.337 0 01-.08.232.283.283 0 01-.23.089H83.2a.301.301 0 01-.296-.194.312.312 0 01-.02-.125v-6.589a.313.313 0 01.089-.23.306.306 0 01.227-.09h.659a.28.28 0 01.23.09.337.337 0 01.08.232v2.668h1.99l.005 1.11zm2.702 3.265a3.47 3.47 0 01-1.743-.402 2.687 2.687 0 01-1.07-1.12 3.867 3.867 0 01-.413-1.627 10.947 10.947 0 01-.013-.606c0-.244 0-.441.013-.59.015-.57.156-1.13.413-1.638a2.69 2.69 0 011.076-1.113 3.456 3.456 0 011.737-.402c.6-.021 1.196.117 1.728.402.457.258.832.645 1.078 1.113.26.506.398 1.067.404 1.638.02.196.03.393.027.59.002.203-.007.405-.027.606a3.727 3.727 0 01-.397 1.627 2.682 2.682 0 01-1.078 1.12 3.465 3.465 0 01-1.735.402zm0-1.07a1.752 1.752 0 001.358-.55c.338-.365.521-.9.549-1.603.009-.14.013-.316.013-.53 0-.211 0-.388-.013-.527-.028-.703-.21-1.238-.549-1.605a1.777 1.777 0 00-1.358-.549 1.776 1.776 0 00-1.376.548c-.345.368-.53.903-.556 1.606-.011.14-.016.316-.016.527 0 .212 0 .39.016.53.026.705.211 1.24.556 1.603a1.789 1.789 0 001.376.55z" fill="#000"/></svg>