<svg width="37" height="29" fill="none" xmlns="http://www.w3.org/2000/svg"><path d="M7.346 27.946v-1.844c0-.707-.429-1.168-1.164-1.168-.367 0-.765.123-1.041.523-.214-.338-.52-.523-.98-.523a.99.99 0 00-.857.43v-.368H2.66v2.95h.643v-1.629c0-.522.275-.768.704-.768.429 0 .643.277.643.768v1.629h.643v-1.629c0-.522.306-.768.704-.768.43 0 .643.277.643.768v1.629h.705zm9.523-2.95h-1.041v-.891h-.643v.89h-.582v.585h.582v1.352c0 .676.275 1.075 1.01 1.075.276 0 .582-.092.796-.215l-.184-.553a1.005 1.005 0 01-.55.154c-.307 0-.43-.185-.43-.492V25.58h1.042v-.584zm5.45-.062a.863.863 0 00-.765.43v-.368h-.643v2.95h.643v-1.66c0-.491.214-.768.612-.768.122 0 .276.031.398.062l.184-.615c-.123-.03-.306-.03-.429-.03zm-8.237.308c-.306-.215-.735-.308-1.194-.308-.735 0-1.225.37-1.225.953 0 .492.368.768 1.01.86l.307.031c.337.062.52.154.52.308 0 .215-.245.368-.673.368-.429 0-.766-.153-.98-.307l-.306.492c.336.245.796.368 1.255.368.857 0 1.348-.4 1.348-.952 0-.523-.399-.8-1.011-.891l-.306-.031c-.276-.03-.49-.092-.49-.277 0-.215.214-.338.551-.338.367 0 .735.154.919.246l.275-.522zm17.087-.308a.863.863 0 00-.766.43v-.368h-.643v2.95h.643v-1.66c0-.491.214-.768.612-.768.123 0 .276.031.398.062l.184-.615c-.122-.03-.306-.03-.428-.03zm-8.207 1.537c0 .891.613 1.536 1.562 1.536.428 0 .735-.092 1.041-.338l-.306-.522c-.245.184-.49.277-.766.277-.52 0-.888-.37-.888-.953 0-.553.368-.922.888-.953.276 0 .52.092.766.277l.306-.523c-.306-.245-.613-.338-1.041-.338-.95 0-1.562.646-1.562 1.537zm5.94 0v-1.475h-.642v.369c-.215-.277-.521-.43-.919-.43-.827 0-1.47.645-1.47 1.536s.643 1.536 1.47 1.536c.429 0 .735-.153.919-.43v.369h.643V26.47zm-2.357 0c0-.523.337-.953.888-.953.52 0 .888.4.888.953 0 .522-.368.953-.888.953-.551-.031-.888-.43-.888-.953zm-7.686-1.537c-.857 0-1.47.615-1.47 1.537 0 .922.613 1.536 1.5 1.536.43 0 .858-.123 1.195-.4l-.306-.46a1.46 1.46 0 01-.858.307c-.398 0-.796-.184-.888-.707h2.174v-.245c.031-.953-.52-1.568-1.347-1.568zm0 .553c.398 0 .674.246.735.707h-1.531c.061-.4.337-.706.796-.706zm15.953.984v-2.643h-.643v1.537c-.214-.277-.52-.43-.918-.43-.827 0-1.47.645-1.47 1.536s.643 1.536 1.47 1.536c.428 0 .735-.153.918-.43v.369h.643V26.47zm-2.357 0c0-.523.336-.953.888-.953.52 0 .888.4.888.953 0 .522-.368.953-.888.953-.552-.031-.888-.43-.888-.953zm-21.496 0v-1.475h-.643v.369c-.215-.277-.52-.43-.919-.43-.827 0-1.47.645-1.47 1.536s.643 1.536 1.47 1.536c.429 0 .735-.153.919-.43v.369h.643V26.47zm-2.389 0c0-.523.337-.953.889-.953.52 0 .888.4.888.953 0 .522-.368.953-.888.953-.552-.031-.889-.43-.889-.953z" fill="#000"/><path d="M23.513 2.594h-9.645v17.393h9.645V2.594z" fill="#FF5F00"/><path d="M14.48 11.29c0-3.534 1.654-6.668 4.195-8.696A10.931 10.931 0 0011.877.228C5.784.228.854 5.175.854 11.29c0 6.116 4.93 11.063 11.024 11.063 2.572 0 4.93-.891 6.797-2.366a11.06 11.06 0 01-4.195-8.697z" fill="#EB001B"/><path d="M36.527 11.29c0 6.116-4.93 11.063-11.023 11.063-2.572 0-4.93-.891-6.798-2.366A11.014 11.014 0 0022.9 11.29c0-3.534-1.654-6.668-4.195-8.696A10.932 10.932 0 0125.504.228c6.093 0 11.023 4.978 11.023 11.062z" fill="#F79E1B"/></svg>