<svg width="65" height="63" fill="none" xmlns="http://www.w3.org/2000/svg"><path fill-rule="evenodd" clip-rule="evenodd" d="M37.208 8.833l2.054.915a.53.53 0 00.294.057.88.88 0 00.274-.102l2.473-1.35.584 2.712a.549.549 0 00.325.442l2.116.943a.387.387 0 00.524-.194.418.418 0 00.028-.266l-1.024-4.711 3.94-2.24a.45.45 0 00.208-.205.338.338 0 00.001-.288.397.397 0 00-.205-.213l-1.927-.858a.535.535 0 00-.254-.047.579.579 0 00-.224.058 1.768 1.768 0 01-.12.057l-2.27 1.275-.506-2.51a1.345 1.345 0 00-.096-.285.473.473 0 00-.246-.203l-2.022-.9a.405.405 0 00-.434.066.364.364 0 00-.09.128.42.42 0 00-.013.273l.84 4.37-4.227 2.371a.394.394 0 00-.2.19.36.36 0 00-.008.303c.037.094.11.17.205.212zM52.096 5.49l1.631 1.38a.441.441 0 00.494.06.438.438 0 00.137-.108L55.4 5.63a.43.43 0 00-.047-.62l-1.631-1.38a.411.411 0 00-.312-.097.433.433 0 00-.306.155L52.062 4.88a.439.439 0 00-.117.315.394.394 0 00.151.295zm-6.641 7.599l1.63 1.379a.455.455 0 00.32.115.415.415 0 00.3-.149l5.274-6.033a.396.396 0 00.103-.314.437.437 0 00-.162-.294l-1.632-1.38a.434.434 0 00-.473-.06.406.406 0 00-.133.106l-5.273 6.032a.43.43 0 00.046.598zm3.964 3.964l1.173 1.713a.403.403 0 00.28.183.437.437 0 00.317-.068l5.125-3.393 1.441 2.107a.405.405 0 00.28.18c.11.02.225-.004.318-.066l1.227-.813a.416.416 0 00.19-.268.414.414 0 00-.073-.32L55.162 9.68a.451.451 0 00-.279-.193.412.412 0 00-.329.064l-1.228.814a.397.397 0 00-.184.275.427.427 0 00.078.326l1.43 2.092-5.124 3.394a.396.396 0 00-.184.275.427.427 0 00.077.326zm4.466 9.959l-.219 2.207a.509.509 0 00.04.292c.048.084.111.16.185.222l2.097 1.869-2.423 1.417a.56.56 0 00-.32.445l-.226 2.274a.37.37 0 00.084.29.383.383 0 00.271.136.446.446 0 00.265-.06l4.205-2.47 3.425 2.949a.465.465 0 00.263.126.36.36 0 00.278-.092.392.392 0 00.139-.258l.205-2.073a.508.508 0 00-.036-.25.573.573 0 00-.128-.191 2.798 2.798 0 01-.095-.094l-1.957-1.702 2.254-1.28a1.36 1.36 0 00.243-.18.467.467 0 00.115-.296l.216-2.173a.383.383 0 00-.085-.28.369.369 0 00-.27-.145.438.438 0 00-.267.076l-3.936 2.19-3.644-3.173a.39.39 0 00-.68.224zm8.007 12.8l-.806 1.961a.424.424 0 00.001.339.42.42 0 00.246.235l1.485.59a.439.439 0 00.343-.002.428.428 0 00.239-.242l.806-1.962a.408.408 0 00-.007-.322.432.432 0 00-.247-.236l-1.484-.588a.455.455 0 00-.34-.008.4.4 0 00-.236.235zm-9.446-3.752l-.806 1.96a.434.434 0 00-.008.336.402.402 0 00.239.232l7.5 2.979a.406.406 0 00.335-.003.445.445 0 00.23-.246l.807-1.963a.413.413 0 00.001-.319.397.397 0 00-.239-.231l-7.5-2.98a.42.42 0 00-.327.007.407.407 0 00-.232.227zm-2.552 4.962l-1.278 1.64a.395.395 0 00-.086.318.409.409 0 00.166.274l4.904 3.697-1.572 2.016a.398.398 0 00-.085.319.423.423 0 00.165.274l1.175.886a.416.416 0 00.48.035.413.413 0 00.124-.114l4.94-6.342a.437.437 0 00.098-.32.39.39 0 00-.167-.286l-1.175-.886a.41.41 0 00-.324-.085.454.454 0 00-.289.177l-1.56 2.002-4.904-3.697a.405.405 0 00-.324-.084.445.445 0 00-.288.176zm-8.157 7.363l-2.197.499a.525.525 0 00-.27.13.869.869 0 00-.155.243l-1.132 2.55L35.845 50a.57.57 0 00-.53-.157l-2.264.514a.385.385 0 00-.252.17.374.374 0 00-.046.296.434.434 0 00.142.228l3.72 3.135-1.751 4.132a.447.447 0 00-.039.287.347.347 0 00.178.229.4.4 0 00.293.047l2.063-.469a.513.513 0 00.23-.112.598.598 0 00.143-.18c.032-.066.052-.105.06-.118l1.017-2.368 1.952 1.694c.076.065.16.122.25.169a.487.487 0 00.322.014l2.163-.491a.39.39 0 00.243-.169.36.36 0 00.054-.298.43.43 0 00-.16-.225l-3.362-2.971 1.897-4.409a.384.384 0 00.044-.27.363.363 0 00-.183-.245.39.39 0 00-.293-.047zm-9.758 11.544l-2.147-.12a.444.444 0 00-.43.247.416.416 0 00-.042.168l-.09 1.572a.422.422 0 00.11.32.431.431 0 00.311.144l2.148.12a.42.42 0 00.308-.11.422.422 0 00.147-.306l.09-1.572a.436.436 0 00-.237-.424.406.406 0 00-.167-.039zm.577-10.004l-2.147-.12a.454.454 0 00-.325.1.395.395 0 00-.146.297l-.458 7.943a.392.392 0 00.111.312.452.452 0 00.311.135l2.149.12a.442.442 0 00.307-.101.399.399 0 00.146-.297l.457-7.944a.427.427 0 00-.111-.303.441.441 0 00-.294-.142zm-5.597-.78l-1.988-.663a.413.413 0 00-.336.023.426.426 0 00-.21.242l-1.985 5.755-2.445-.815a.41.41 0 00-.334.022.422.422 0 00-.21.242l-.476 1.38a.405.405 0 00.269.536l7.693 2.566c.11.04.232.036.34-.012a.406.406 0 00.221-.248l.476-1.378a.392.392 0 00-.024-.33.448.448 0 00-.262-.213l-2.428-.81 1.984-5.754a.392.392 0 00-.023-.33.446.446 0 00-.262-.212zm-9.695-5.25l-1.187-1.886a.523.523 0 00-.213-.21.884.884 0 00-.284-.065l-2.819-.234 1.052-2.572a.55.55 0 00-.02-.546L12.57 36.44a.382.382 0 00-.245-.18.387.387 0 00-.3.054.434.434 0 00-.174.205l-1.819 4.473-4.54-.299a.463.463 0 00-.29.056.35.35 0 00-.163.239.381.381 0 00.05.288l1.115 1.77a.517.517 0 00.182.178.6.6 0 00.22.075c.073.009.117.015.133.019l2.606.184-1.002 2.362c-.038.093-.066.19-.082.29a.468.468 0 00.09.303l1.17 1.856c.053.086.14.148.24.172a.377.377 0 00.304-.046.435.435 0 00.166-.22l1.776-4.089 4.855.347a.394.394 0 00.39-.152.363.363 0 00.062-.143.382.382 0 00-.05-.288zm-14.26-5.398l-.57-2.04a.43.43 0 00-.208-.269.446.446 0 00-.342-.039l-1.543.417a.447.447 0 00-.273.206.43.43 0 00-.04.335l.57 2.04a.399.399 0 00.204.252.438.438 0 00.341.04l1.544-.418a.45.45 0 00.275-.196.396.396 0 00.042-.328zm9.824-2.655l-.57-2.04a.443.443 0 00-.2-.27.41.41 0 00-.334-.042l-7.798 2.107a.41.41 0 00-.266.204.436.436 0 00-.03.333l.569 2.04a.418.418 0 00.195.254.407.407 0 00.333.042l7.8-2.107a.44.44 0 00.256-.201.428.428 0 00.045-.32zm-1.048-5.458l.034-2.064a.392.392 0 00-.124-.307.43.43 0 00-.299-.123l-6.177-.099.042-2.539a.397.397 0 00-.125-.307.435.435 0 00-.3-.123l-1.478-.023a.418.418 0 00-.407.252.4.4 0 00-.03.164l-.133 7.989a.434.434 0 00.255.413.41.41 0 00.168.033l1.48.024a.416.416 0 00.312-.122.44.44 0 00.126-.311l.04-2.522 6.178.098a.408.408 0 00.312-.122.435.435 0 00.126-.311zm1.957-10.727l1.438-1.707a.5.5 0 00.133-.265.845.845 0 00-.027-.286l-.674-2.703 2.814.16a.575.575 0 00.52-.191l1.482-1.761a.375.375 0 00.048-.432.441.441 0 00-.355-.213l-4.89-.268-1.16-4.329a.447.447 0 00-.146-.251.358.358 0 00-.282-.077.394.394 0 00-.262.14l-1.35 1.603a.5.5 0 00-.112.226.571.571 0 00-.004.23c.01.043.019.086.025.13l.654 2.487-2.596-.18a1.33 1.33 0 00-.304.017.474.474 0 00-.265.18L7.01 13.849a.384.384 0 00-.089.28.359.359 0 00.141.268.45.45 0 00.265.084l4.507.352 1.214 4.637a.384.384 0 00.27.315.376.376 0 00.158.011.392.392 0 00.262-.139zm.625-15.004l1.78-1.187a.437.437 0 00.192-.28.428.428 0 00-.071-.33l-.898-1.304a.437.437 0 00-.286-.188.448.448 0 00-.336.071l-1.78 1.187a.41.41 0 00-.177.27.42.42 0 00.072.332l.898 1.303a.45.45 0 00.277.193.412.412 0 00.329-.067zm5.717 8.296l1.78-1.187a.44.44 0 00.196-.274.39.39 0 00-.067-.324L17.45 4.58a.398.398 0 00-.28-.181.457.457 0 00-.332.077l-1.78 1.187a.421.421 0 00-.184.433.395.395 0 00.069.155l4.538 6.586a.446.446 0 00.597.113zm4.93-2.722l1.989-.66a.41.41 0 00.252-.218.416.416 0 00.018-.318l-1.973-5.758 2.446-.811a.404.404 0 00.252-.218.414.414 0 00.019-.319L27.538.546a.404.404 0 00-.212-.251.417.417 0 00-.333-.014l-7.697 2.55a.444.444 0 00-.263.213.396.396 0 00-.024.33l.474 1.379a.39.39 0 00.22.248.46.46 0 00.34.013l2.43-.806 1.974 5.758a.392.392 0 00.22.248c.108.048.23.053.341.013z" fill="#FF6A2A"/></svg>