<svg width="63" height="63" fill="none" xmlns="http://www.w3.org/2000/svg"><path fill-rule="evenodd" clip-rule="evenodd" d="M35.717 9.478l1.815.434c.126.038.26.031.381-.02a.765.765 0 00.283-.25l4.861-6.786.064-.123a.36.36 0 00-.05-.294.385.385 0 00-.234-.168l-1.944-.465a.446.446 0 00-.333.032.635.635 0 00-.219.196L37.4 6.454l-.607-5.27a.515.515 0 00-.405-.457L34.46.267a.369.369 0 00-.462.283.431.431 0 00-.015.133l1.28 8.258c.016.125.06.244.131.348.08.1.196.168.323.189zm8.32 3.712a5.458 5.458 0 002.067.92c.674.128 1.257.125 1.747-.009.49-.134.818-.32.982-.558a.283.283 0 00.038-.246.39.39 0 00-.16-.223l-1.797-1.24a.746.746 0 00-.264-.13.866.866 0 00-.317.033c-.198.054-.403.08-.609.076a1.156 1.156 0 01-.618-.233 1.105 1.105 0 01-.521-.918c-.01-.377.123-.775.398-1.192l.056-.083 4.348 3a.425.425 0 00.602-.11l.237-.343c.46-.644.768-1.385.897-2.166.113-.73 0-1.48-.322-2.145-.327-.691-.883-1.308-1.67-1.85-1.088-.75-2.163-1.04-3.225-.87-1.063.17-1.988.788-2.775 1.851l-.293.425c-.77 1.156-1.042 2.254-.815 3.295.227 1.041.898 1.946 2.013 2.716zm1.968-5.201l.019-.029c.303-.438.631-.714.986-.827a1.157 1.157 0 011.053.19 1.182 1.182 0 01.558.922c.025.375-.114.782-.416 1.221l-.02.027-2.18-1.504zm1.139 13.349c.75 1.167 1.613 1.894 2.588 2.18.975.284 2 .081 3.075-.61l6.713-4.315a.427.427 0 00.131-.6l-1.1-1.71a.39.39 0 00-.266-.185.439.439 0 00-.323.069l-.504.323a3.15 3.15 0 00.15-1.383 3.303 3.303 0 00-.537-1.438c-.63-.982-1.432-1.52-2.404-1.614-.972-.095-2.028.223-3.168.956l-.369.257c-1.036.732-1.666 1.524-1.891 2.375-.226.851-.035 1.748.57 2.692.553.861 1.245 1.374 2.078 1.538l-.94.604c-.467.3-.864.417-1.19.35-.328-.068-.62-.302-.878-.704-.205-.317-.296-.589-.276-.814.027-.242.113-.473.25-.675a.66.66 0 00.118-.294.438.438 0 00-.08-.265l-1.208-1.879a.449.449 0 00-.26-.189.36.36 0 00-.31.042c-.252.162-.49.486-.712.972-.223.487-.298 1.103-.228 1.85.071.747.395 1.569.97 2.467zm5.072-3.42c-.294-.457-.346-.873-.158-1.245.19-.373.552-.73 1.084-1.073l.317-.184c.451-.264.86-.381 1.23-.354.366.027.682.247.947.658.258.403.331.778.219 1.127-.134.38-.385.707-.715.936-.132.102-.27.197-.412.285a4.47 4.47 0 01-.43.256 1.933 1.933 0 01-1.141.258c-.37-.04-.683-.262-.941-.663zm.832 8.35c.079.53.28 1.034.587 1.471.259.365.603.66 1.004.858l-.575.1a.425.425 0 00-.338.482l.352 2.019a.39.39 0 00.174.273c.09.062.2.085.308.066l4.972-.868c1.019-.177 1.769-.646 2.25-1.407.481-.76.604-1.82.368-3.177-.148-.854-.405-1.548-.768-2.082-.364-.535-.754-.912-1.17-1.132-.417-.221-.774-.312-1.072-.27a.3.3 0 00-.237.134.368.368 0 00-.06.29l.332 1.904a.19.19 0 00.143.144c.096.123.206.235.328.332.159.132.304.28.432.44.112.158.184.34.211.53.069.394.025.69-.132.887-.159.197-.44.33-.844.4l-.197.035-.667-1.981c-.364-1.054-.833-1.849-1.405-2.386a2.198 2.198 0 00-1.976-.611 2.287 2.287 0 00-1.226.628 2.76 2.76 0 00-.733 1.278 3.721 3.721 0 00-.06 1.643zm2.08.483a1.352 1.352 0 01.092-.836.724.724 0 01.551-.427c.481-.083.89.32 1.225 1.209l.468 1.322-.197.034c-.602.105-1.088.035-1.458-.211a1.568 1.568 0 01-.68-1.09zm-1.577 8.091l-.357 1.833a.56.56 0 00.037.38.753.753 0 00.26.272l6.987 4.569.125.058a.36.36 0 00.292-.062.381.381 0 00.157-.242l.382-1.963a.442.442 0 00-.045-.33.632.632 0 00-.206-.21l-4.54-2.752 5.237-.831a.513.513 0 00.438-.424l.38-1.947a.371.371 0 00-.304-.45.428.428 0 00-.134-.009l-8.193 1.632a.81.81 0 00-.343.146.53.53 0 00-.173.33zM48.937 45.41l-1.222 1.41a.566.566 0 00-.158.348c0 .127.03.253.09.365l3.78 7.446.078.112a.365.365 0 00.284.093.386.386 0 00.258-.131l1.309-1.51a.445.445 0 00.124-.312.633.633 0 00-.072-.284l-2.564-4.649 4.954 1.892a.515.515 0 00.591-.149l1.3-1.498a.373.373 0 00-.04-.54.398.398 0 00-.111-.076l-7.914-2.672a.82.82 0 00-.37-.046.53.53 0 00-.316.2zm-7.12 5.687a5.462 5.462 0 00-1.767 1.416c-.422.54-.687 1.059-.793 1.556-.106.498-.09.874.046 1.129a.286.286 0 00.201.148.4.4 0 00.271-.04l1.925-1.03a.75.75 0 00.238-.174.866.866 0 00.115-.298c.044-.2.115-.395.212-.576a1.16 1.16 0 01.491-.442 1.104 1.104 0 011.054-.043c.34.165.633.465.878.902l.047.088-4.659 2.489a.427.427 0 00-.178.585l.196.368c.36.705.878 1.317 1.513 1.79a3.632 3.632 0 002.053.697c.764.027 1.567-.184 2.41-.634 1.166-.623 1.916-1.446 2.251-2.47.335-1.023.211-2.128-.372-3.315l-.243-.456c-.674-1.214-1.525-1.959-2.554-2.234-1.028-.275-2.14-.094-3.336.544zm3.718 4.134l.016.03c.25.47.345.889.283 1.256a1.16 1.16 0 01-.652.849 1.182 1.182 0 01-1.075.074c-.344-.15-.642-.46-.893-.93l-.016-.03 2.337-1.249zm-12.37-5.129c-1.383.126-2.426.556-3.129 1.29-.703.734-.996 1.737-.88 3.008l.725 7.951a.418.418 0 00.153.295.422.422 0 00.318.097l2.024-.185a.39.39 0 00.287-.152.431.431 0 00.089-.317l-.055-.597c.324.34.72.604 1.158.772a3.3 3.3 0 001.523.187c1.162-.106 2.01-.568 2.542-1.386.534-.817.739-1.902.616-3.253l-.058-.446c-.17-1.256-.58-2.18-1.232-2.774-.65-.593-1.534-.84-2.652-.738-1.017.093-1.791.47-2.322 1.133l-.102-1.113c-.05-.552.03-.958.24-1.218.211-.259.554-.41 1.03-.453.376-.035.66.01.849.131.201.136.367.32.483.533.048.097.119.18.206.242a.444.444 0 00.272.05l2.224-.203a.446.446 0 00.288-.144.362.362 0 00.107-.294c-.027-.298-.205-.659-.534-1.08-.328-.422-.84-.775-1.535-1.058-.695-.282-1.573-.374-2.635-.278zm.688 6.08c.542-.05.934.096 1.177.436.243.34.393.825.45 1.456l.017.367c.026.522-.059.94-.254 1.253-.194.313-.535.492-1.021.537-.476.043-.843-.066-1.1-.326a1.917 1.917 0 01-.5-1.068c-.03-.164-.05-.33-.062-.496a4.592 4.592 0 01-.029-.5c-.02-.398.085-.794.299-1.131.206-.31.547-.485 1.023-.529zM26.06 53.08a3.423 3.423 0 00-1.576-.153 2.69 2.69 0 00-1.221.498l.174-.557a.426.426 0 00-.273-.521l-1.955-.614a.396.396 0 00-.323.03.413.413 0 00-.199.242l-1.511 4.82c-.31.985-.237 1.866.218 2.644.455.778 1.34 1.373 2.654 1.785.827.259 1.56.35 2.202.27.641-.077 1.155-.25 1.542-.52.387-.269.63-.544.731-.827a.302.302 0 00-.01-.273.374.374 0 00-.23-.186l-1.845-.579a.191.191 0 00-.193.062 1.965 1.965 0 00-.446.14 3.1 3.1 0 01-.59.182c-.19.026-.385.007-.567-.056-.381-.12-.623-.295-.726-.525-.102-.231-.092-.542.031-.934l.06-.191 2.066.316c1.102.16 2.023.108 2.764-.154a2.197 2.197 0 001.449-1.475 2.29 2.29 0 00.004-1.379 2.753 2.753 0 00-.799-1.238 3.723 3.723 0 00-1.432-.807h.001zm-1.383 1.628c.277.076.523.238.701.464a.724.724 0 01.125.686c-.146.466-.69.645-1.634.535l-1.39-.191.06-.191c.183-.583.468-.983.856-1.199a1.565 1.565 0 011.281-.104zm-4.71-3.586l-1.688-1.435a.39.39 0 00-.31-.1.414.414 0 00-.277.146l-2.949 3.465c-.316.372-.66.578-1.031.62a1.37 1.37 0 01-1.064-.369c-.347-.295-.525-.621-.534-.98-.009-.357.148-.727.472-1.108l2.949-3.464a.392.392 0 00.099-.31.434.434 0 00-.16-.288l-1.687-1.437a.396.396 0 00-.309-.099.415.415 0 00-.278.147l-3.013 3.54c-.518.61-.853 1.221-1.004 1.836a2.987 2.987 0 00.056 1.734 3.29 3.29 0 001.007 1.426c.42.37.915.644 1.453.8.473.135.97.162 1.454.077l-.41.483a.398.398 0 00.047.587l1.56 1.329a.406.406 0 00.298.1.388.388 0 00.29-.148l5.075-5.964a.428.428 0 00-.047-.588zm-9.444-11.536L9.92 37.82a.57.57 0 00-.221-.313.768.768 0 00-.362-.105l-8.333-.486-.137.012a.36.36 0 00-.223.199.38.38 0 00-.016.287l.645 1.892a.448.448 0 00.205.266.645.645 0 00.282.08l5.307.126-4.13 3.328a.513.513 0 00-.169.586l.64 1.877a.372.372 0 00.486.24.425.425 0 00.121-.06l6.296-5.493a.805.805 0 00.224-.296.529.529 0 00-.013-.374zm-1.312-9.02a5.47 5.47 0 00-.331-2.24c-.254-.638-.569-1.128-.945-1.47-.376-.342-.708-.518-.997-.53a.283.283 0 00-.229.1c-.063.07-.1.16-.101.255l-.083 2.181a.75.75 0 00.03.293c.05.095.118.18.2.25.15.139.282.298.39.474.107.197.153.422.134.646a1.105 1.105 0 01-.494.932c-.314.21-.72.312-1.22.304l-.1-.004.2-5.28a.427.427 0 00-.417-.448l-.416-.017a5.177 5.177 0 00-2.308.405 3.643 3.643 0 00-1.638 1.422c-.408.646-.63 1.446-.666 2.402-.05 1.32.281 2.384.995 3.19.715.805 1.731 1.255 3.05 1.35l.516.019c1.389.03 2.461-.33 3.219-1.08.756-.75 1.16-1.802 1.212-3.155zm-5.445 1.127l-.033-.001c-.533-.02-.942-.15-1.227-.39a1.158 1.158 0 01-.405-.99 1.183 1.183 0 01.479-.966c.303-.222.72-.323 1.253-.303l.034.002-.1 2.648zm10.659-8.106c.587-1.258.74-2.375.462-3.352-.28-.976-.998-1.735-2.155-2.276L5.5 14.581a.427.427 0 00-.576.21l-.86 1.842a.393.393 0 00-.014.325c.043.106.125.19.23.236l.543.254a3.159 3.159 0 00-1.25.611c-.402.329-.72.747-.93 1.222-.493 1.057-.52 2.022-.083 2.895.438.873 1.271 1.596 2.5 2.17l.414.175c1.17.485 2.176.596 3.017.333.84-.263 1.497-.904 1.972-1.921.432-.925.496-1.784.192-2.577l1.011.472c.504.236.814.51.932.822.118.311.075.684-.127 1.117-.16.343-.34.566-.541.668-.22.106-.46.157-.704.149a.658.658 0 00-.312.057.436.436 0 00-.18.21l-.945 2.023a.443.443 0 00-.021.322.365.365 0 00.2.24c.272.126.672.154 1.202.083.53-.07 1.091-.335 1.686-.794.594-.458 1.116-1.17 1.568-2.138zm-5.596-2.466c-.23.493-.554.759-.97.798-.417.038-.912-.076-1.485-.345l-.325-.17c-.464-.241-.782-.525-.955-.85-.173-.327-.155-.711.051-1.154.202-.432.48-.695.836-.787a1.92 1.92 0 011.173.107c.158.056.311.122.46.196.153.068.302.144.446.227.355.184.644.473.827.828.164.333.144.717-.058 1.15zm6.614-5.163c.404-.35.722-.79.926-1.284.17-.413.233-.862.186-1.306l.393.431a.428.428 0 00.588.027l1.515-1.38a.391.391 0 00.138-.293.413.413 0 00-.11-.294l-3.398-3.736c-.695-.763-1.493-1.144-2.394-1.144-.9 0-1.86.465-2.878 1.393-.64.583-1.089 1.172-1.345 1.765-.256.594-.365 1.125-.328 1.594.037.47.152.82.346 1.049a.3.3 0 00.241.13.371.371 0 00.276-.105l1.43-1.301a.195.195 0 00.044-.199c.053-.147.087-.3.104-.456.026-.204.073-.405.14-.6.073-.179.188-.337.335-.463.296-.269.569-.39.819-.362.25.028.514.194.79.497l.135.149-1.315 1.624c-.693.872-1.113 1.693-1.26 2.466a2.203 2.203 0 00.543 1.996 2.3 2.3 0 001.188.699c.488.111.997.088 1.472-.067a3.729 3.729 0 001.419-.83zm-.708-2.015c-.206.2-.47.331-.755.371a.724.724 0 01-.655-.238c-.329-.36-.208-.92.362-1.68l.866-1.104.134.148c.412.45.613.899.604 1.344a1.569 1.569 0 01-.556 1.159zm5.465-2.271l2.091-.735a.39.39 0 00.242-.216.417.417 0 00.013-.315L21.04 6.114c-.162-.46-.167-.862-.017-1.205a1.37 1.37 0 01.856-.732c.43-.15.8-.14 1.114.032.314.173.554.495.72.967l1.506 4.292a.394.394 0 00.218.242.437.437 0 00.329.007l2.09-.734a.39.39 0 00.242-.217.415.415 0 00.014-.314l-1.54-4.387c-.265-.754-.625-1.352-1.08-1.794a2.982 2.982 0 00-1.526-.823 3.296 3.296 0 00-1.739.15 3.765 3.765 0 00-1.422.854c-.355.34-.628.756-.8 1.217l-.21-.598a.399.399 0 00-.53-.254l-1.934.678a.415.415 0 00-.255.532l2.594 7.39a.428.428 0 00.531.255z" fill="#00D23B"/></svg>