<svg width="27" height="31" fill="none" xmlns="http://www.w3.org/2000/svg"><path d="M11.864 6.162c.025 1.72.584 4.047 3.204 4.95-.82-1.998-.945-3.91-.364-5.696.776-2.398 3.368-4.272 5.093-5.292a.886.886 0 011.333.78c-.022 1.273.355 3.132 2.19 5.009C25.763 8.41 27 10.993 27 13.584 27 16.84 24.765 21 20.294 21c4.517-4.622 1.118-8.56 1.118-8.56-.946 6.765-5.575 8.56-7.824 8.56C11.676 21 8 19.57 8 13.624c0-3.583 1.489-6.303 2.666-7.89.387-.525 1.189-.227 1.198.428z" fill="#FDCB6A"/><path d="M19.916 11.216c-.034 2.292-.769 5.396-4.216 6.6 1.08-2.664 1.244-5.212.48-7.594-1.023-3.199-4.433-5.697-6.702-7.057-.775-.467-1.77.113-1.754 1.042.029 1.695-.468 4.174-2.881 6.677C1.628 14.214 0 17.657 0 21.113 0 25.452 2.941 31 8.824 31 2.88 24.837 7.353 19.587 7.353 19.587 8.597 28.607 14.688 31 17.647 31 20.163 31 25 29.094 25 21.166c0-4.778-1.959-8.405-3.507-10.522-.51-.698-1.565-.302-1.577.572z" fill="#E7344A"/></svg>